<svg width="32" height="32" viewBox="0 0 32 32" fill="none" xmlns="http://www.w3.org/2000/svg">
<g clip-path="url(#clip0_10_23)">
<path d="M25.7147 0H2.28533C1.02318 0 0 1.02318 0 2.28533V2.28609C0 3.54825 1.02318 4.57142 2.28533 4.57142H25.7147C26.9768 4.57142 28 3.54825 28 2.28609V2.28533C28 1.02318 26.9768 0 25.7147 0Z" fill="#480082" fill-opacity="0.25"/>
<path d="M29.7147 13.7142H6.28533C5.02318 13.7142 4 14.7374 4 15.9996V16.0003C4 17.2625 5.02318 18.2857 6.28533 18.2857H29.7147C30.9768 18.2857 32 17.2625 32 16.0003V15.9996C32 14.7374 30.9768 13.7142 29.7147 13.7142Z" fill="#480082" fill-opacity="0.75"/>
<path d="M27.7147 20.5714H4.28533C3.02318 20.5714 2 21.5946 2 22.8567V22.8575C2 24.1197 3.02318 25.1428 4.28533 25.1428H27.7147C28.9768 25.1428 30 24.1197 30 22.8575V22.8567C30 21.5946 28.9768 20.5714 27.7147 20.5714Z" fill="#480082" fill-opacity="0.5"/>
<path d="M27.7147 6.85712H4.28533C3.02318 6.85712 2 7.8803 2 9.14245V9.14321C2 10.4054 3.02318 11.4285 4.28533 11.4285H27.7147C28.9768 11.4285 30 10.4054 30 9.14321V9.14245C30 7.8803 28.9768 6.85712 27.7147 6.85712Z" fill="#480082" fill-opacity="0.5"/>
<path d="M25.7147 27.4286H2.28533C1.02318 27.4286 0 28.4518 0 29.7139V29.7147C0 30.9768 1.02318 32 2.28533 32H25.7147C26.9768 32 28 30.9768 28 29.7147V29.7139C28 28.4518 26.9768 27.4286 25.7147 27.4286Z" fill="#480082" fill-opacity="0.25"/>
<path d="M18.4373 2.28533C18.4373 1.02318 17.4141 0 16.152 0C14.8898 0 13.8666 1.02318 13.8666 2.28533V29.7146C13.8666 30.9768 14.8898 31.9999 16.152 31.9999C17.4141 31.9999 18.4373 30.9768 18.4373 29.7146V2.28533Z" fill="#FFF0F5" fill-opacity="0.75"/>
</g>
<defs>
<clipPath id="clip0_10_23">
<rect width="32" height="32" fill="white"/>
</clipPath>
</defs>
</svg>
